# xmcd
#
# Track frame offsets:
#	150
#	16121
#	32572
#	51647
#	69519
#	85144
#	107291
#	121939
#	136662
#
# Disc length: 2010 seconds
#
# Revision: 2
# Processed by: cddbd v1.5.2PL0 Copyright (c) Steve Scherf et al.
# Submitted via: EasyCDDAExtractor 9.0.0.1
#
DISCID=6807d809
DTITLE=Kasia Bochenek and Black Horse - Polna droga do marzen
DYEAR=2005
DGENRE=Country
TTITLE0=Polna droga do marzen
TTITLE1=Kochaj i nie mów nie
TTITLE2=Serce jak zegar
TTITLE3=Niegrozne hobby
TTITLE4=Moje nogi
TTITLE5=Puk, puk to ja...
TTITLE6=W rytmie Honky Tonk
TTITLE7=Wyhamuj i wrzuc na luz
TTITLE8=Crazy
EXTD=
EXTT0=
EXTT1=
EXTT2=
EXTT3=
EXTT4=
EXTT5=
EXTT6=
EXTT7=
EXTT8=
PLAYORDER=
